Coordinates
version=1
nRows=4
nColumns=63
inDegrees=yes

Units are S.I. units (second, meters, Newtons, ...)
If the header above contains a line with 'inDegrees', this indicates whether rotational values are in degrees (yes) or radians (no).

endheader
time	pelvis_tilt	pelvis_list	pelvis_rotation	pelvis_tx	pelvis_ty	pelvis_tz	hip_flexion_r	hip_adduction_r	hip_rotation_r	knee_angle_r	knee_angle_r_beta	ankle_angle_r	subtalar_angle_r	mtp_angle_r	hip_flexion_l	hip_adduction_l	hip_rotation_l	knee_angle_l	knee_angle_l_beta	ankle_angle_l	subtalar_angle_l	mtp_angle_l	L5_S1_Flex_Ext	L5_S1_Lat_Bending	L5_S1_axial_rotation	L4_L5_Flex_Ext	L4_L5_Lat_Bending	L4_L5_axial_rotation	L3_L4_Flex_Ext	L3_L4_Lat_Bending	L3_L4_axial_rotation	L2_L3_Flex_Ext	L2_L3_Lat_Bending	L2_L3_axial_rotation	L1_L2_Flex_Ext	L1_L2_Lat_Bending	L1_L2_axial_rotation	L1_T12_Flex_Ext	L1_T12_Lat_Bending	L1_T12_axial_rotation	Abs_r3	Abs_r2	Abs_r1	Abs_t1	Abs_t2	neck_flexion	neck_bending	neck_rotation	arm_flex_r	arm_add_r	arm_rot_r	elbow_flex_r	pro_sup_r	wrist_flex_r	wrist_dev_r	arm_flex_l	arm_add_l	arm_rot_l	elbow_flex_l	pro_sup_l	wrist_flex_l	wrist_dev_l
      0.00000000	     -0.24684755	     -6.32842287	    109.66858758	      0.23387678	      0.85242368	      0.68176533	      0.33733766	     -1.11333071	     -1.46002118	      0.59521397	      0.01038844	     11.69918482	    -11.63210824	      0.00000000	      5.75211671	      3.07712556	      9.76500405	      7.52460438	      0.13132912	     14.61695064	     -2.58763323	      0.00000000	     -0.13182404	     -0.26859342	     -0.53258252	     -0.24481042	     -0.35722925	     -0.56586893	     -0.21657371	     -0.65305804	     -0.56586893	     -0.15066169	     -0.65305804	     -0.46600971	     -0.12241180	     -0.54771570	     -0.43272330	     -0.07532425	     -0.41605120	     -0.39943689	     -0.94160590	     -3.03838246	     -2.96206420	      0.00000000	      0.00000000	     26.40739870	     -6.25907180	     -6.31287139	      0.67987266	    -14.81838342	     33.59480932	     29.75375834	     75.07364071	     -8.53066252	     -1.04274135	      4.13580040	    -18.67988780	     58.90155213	     27.12478647	     62.81089102	     -8.23484407	     -9.27272257
      0.02000000	     -0.51124414	     -6.00753774	    108.05108155	      0.23612367	      0.85338371	      0.67876264	     -0.02726636	     -1.30033958	      2.93053770	      0.47846643	      0.00835081	     12.34839881	    -14.91744729	      0.00000000	      4.89198260	      2.90453039	      5.41351636	      6.92935564	      0.12094007	     16.74484451	      1.06688833	      0.00000000	     -0.15553583	     -0.28506383	     -0.38842404	     -0.28884558	     -0.37913490	     -0.41270054	     -0.25552981	     -0.69310420	     -0.41270054	     -0.17776189	     -0.69310420	     -0.33987104	     -0.14443057	     -0.58130217	     -0.31559453	     -0.08887317	     -0.44156387	     -0.29131803	     -1.11097685	     -3.22469907	     -2.16029799	      0.00000000	      0.00000000	     25.95003650	     -5.98969894	     -5.50270763	      2.01637357	    -13.67163544	     37.08989144	     25.92543448	     70.80741495	     -8.67387169	     -3.24411065	      2.88394022	    -19.08594577	     55.06609376	     28.33073123	     65.12109581	     -9.50208720	    -10.30248089
      0.04000000	     -0.69211595	     -5.59552218	    107.00293510	      0.23756040	      0.85446681	      0.67630320	     -0.52974554	     -1.39747921	      3.76087291	      0.43426597	      0.00757937	     13.33106581	    -14.07504411	      0.00000000	      3.95482531	      2.76582476	      2.30626246	      6.27108948	      0.10945116	     17.72884271	      3.83873171	      0.00000000	     -0.18472112	     -0.29840669	     -0.33661316	     -0.34304559	     -0.39688089	     -0.35765148	     -0.30347833	     -0.72554602	     -0.35765148	     -0.21111777	     -0.72554602	     -0.29453651	     -0.17153203	     -0.60851091	     -0.27349819	     -0.10554965	     -0.46223196	     -0.25245987	     -1.31944449	     -3.37563611	     -1.87214140	      0.00000000	      0.00000000	     25.51951188	     -5.55379019	     -4.93997218	      3.98389648	    -13.47182959	     47.52155893	     22.57664016	     58.13579689	     -8.55472873	     -5.44461074	      1.60137486	    -19.14133299	     50.84195893	     28.92855488	     67.08282300	     -9.66439206	    -10.32419724
      0.06000000	     -0.87816699	     -5.22296288	    106.06024073	      0.23871768	      0.85523149	      0.67374926	     -1.05647624	     -1.50745710	      4.59719243	      0.41033556	      0.00716171	     13.63005272	    -13.77101392	      0.00000000	      3.01728668	      2.80607176	      1.37330990	      5.59076783	      0.09757731	     17.69654779	      3.71634115	      0.00000000	     -0.20185612	     -0.31461927	     -0.20888371	     -0.37486699	     -0.41844363	     -0.22193894	     -0.33162941	     -0.76496529	     -0.22193894	     -0.23070136	     -0.76496529	     -0.18277325	     -0.18744359	     -0.64157161	     -0.16971801	     -0.11534058	     -0.48734525	     -0.15666278	     -1.44183805	     -3.55903610	     -1.16174853	      0.00000000	      0.00000000	     25.10051057	     -5.26126427	     -4.66323017	      3.87988159	    -13.08585565	     47.63887804	     21.40468656	     56.86497060	     -7.85613222	     -4.00715493	      1.07521324	    -19.15818637	     49.70520645	     28.90736744	     65.77720627	     -9.87774663	    -10.60746845
